<svg width="600" height="600" viewBox="0 0 600 600" fill="none" xmlns="http://www.w3.org/2000/svg">
<path d="M339.716 92L299.995 160.126L260.275 92H128L299.996 386.997L471.992 92H339.716Z" fill="#4FC08D"/>
<path d="M339.917 150L300.196 218.126L260.476 150H197L300.197 326.995L403.395 150H339.917Z" fill="#223E36"/>
<path fill-rule="evenodd" clip-rule="evenodd" d="M417.187 424C401.591 472.168 356.363 507 303 507C236.726 507 183 453.274 183 387C183 320.726 236.726 267 303 267C364.194 267 414.69 312.805 422.072 372H358.11C351.449 346.122 327.958 327 300 327C266.863 327 240 353.863 240 387C240 420.137 266.863 447 300 447C319.177 447 336.253 438.003 347.237 424H417.187Z" fill="#4FC08D"/>
<path fill-rule="evenodd" clip-rule="evenodd" d="M417.187 424C401.591 472.168 356.363 507 303 507C236.726 507 183 453.274 183 387C183 320.726 236.726 267 303 267C364.194 267 414.69 312.805 422.072 372H386.681C379.596 332.21 344.826 302 303 302C256.056 302 218 340.056 218 387C218 433.944 256.056 472 303 472C336.682 472 365.789 452.409 379.546 424H417.187Z" fill="#223E36"/>
</svg>
